<svg id="Layer_1" data-name="Layer 1" xmlns="http://www.w3.org/2000/svg" viewBox="0 0 360 152.25"><defs><style>.cls-1{fill:#283894;}.cls-2{fill:#424142;}.cls-3{fill:silver;}.cls-4,.cls-6{fill:#020203;}.cls-5{fill:none;}.cls-5,.cls-6{stroke:#fff;}.cls-7{fill:#fff;stroke:#000;}.cls-8{font-size:12px;fill:#231f20;font-family:OpenSans, Open Sans;}</style></defs><title>Fascor</title><path class="cls-1" d="M72.77,131.42c2.18-1,3.23-1.59,3.39-1.7l-3.5,1.65Z"/><path class="cls-2" d="M354.25,5.72l-.51-.17c-60,16.5-154.4,51-277.53,122.78l-2.08,1,1.22-.48q-11.16,6.53-22.63,13.44l.12,0a225.07,225.07,0,0,1,23.32-12.59q10.8-5.09,21.31-9.86c2.92-1,6.18-1.9,10.35-3.1,51.75-15.92,117.5-20.73,190.4-13.58a317,317,0,0,1,33.11-67.55l-.12,0A263.85,263.85,0,0,1,354.25,5.72Z"/><path class="cls-3" d="M108.05,115.9c50.36-14.38,115.18-15.61,187.08-3.54q.92-2.88,1.89-5.76c.48-1.43,1-2.85,1.48-4.27C225.58,95.18,159.82,100,108.05,115.9Z"/><path class="cls-4" d="M102.14,80.85l-7.58-46.1H71.08L39.82,96.54H62.46l3.1-7.76H81.47l.58,7.76h22.68l-.16-1a43.17,43.17,0,0,1-8.22-4.31Zm-30.6-6.76,3-7c1.48-3.54,2.53-6.27,3.17-8.19a49.77,49.77,0,0,0,1.51-5.4h.36a46,46,0,0,0-.3,5.4q0,2.88.43,8.19l.63,7Zm65.7-15.75-2.08-.5q-8.44-2-8-4.6a3,3,0,0,1,1.57-2.18,7,7,0,0,1,3.54-.78A14.29,14.29,0,0,1,138,51.53a20.61,20.61,0,0,1,5.5,3.61L152.62,39a37.19,37.19,0,0,0-9.15-4.22,33.61,33.61,0,0,0-9.7-1.39A29.2,29.2,0,0,0,115,39.6a25.46,25.46,0,0,0-9.48,16.21q-1.08,6.42,1.69,10.72t9,6l3,.72q6,1.35,5.55,3.93a3.31,3.31,0,0,1-1.64,2.34,6.54,6.54,0,0,1-3.54.86,15.11,15.11,0,0,1-6.38-1.53A34.75,34.75,0,0,1,106,74l-3.83,6.89,2.43,14.73c.81.32,1.63.62,2.45.88a37.22,37.22,0,0,0,11.25,1.73,30.1,30.1,0,0,0,19.38-6.5,26.36,26.36,0,0,0,9.83-16.76q1.05-6.29-1.69-10.72A13.33,13.33,0,0,0,137.24,58.34Z"/><path class="cls-5" d="M102.14,80.85l-7.58-46.1H71.08L39.82,96.54H62.46l3.1-7.76H81.47l.58,7.76h22.68l-.16-1a43.17,43.17,0,0,1-8.22-4.31Zm-30.6-6.76,3-7c1.48-3.54,2.53-6.27,3.17-8.19a49.77,49.77,0,0,0,1.51-5.4h.36a46,46,0,0,0-.3,5.4q0,2.88.43,8.19l.63,7Zm65.7-15.75-2.08-.5q-8.44-2-8-4.6a3,3,0,0,1,1.57-2.18,7,7,0,0,1,3.54-.78A14.29,14.29,0,0,1,138,51.53a20.61,20.61,0,0,1,5.5,3.61L152.62,39a37.19,37.19,0,0,0-9.15-4.22,33.61,33.61,0,0,0-9.7-1.39A29.2,29.2,0,0,0,115,39.6a25.46,25.46,0,0,0-9.48,16.21q-1.08,6.42,1.69,10.72t9,6l3,.72q6,1.35,5.55,3.93a3.31,3.31,0,0,1-1.64,2.34,6.54,6.54,0,0,1-3.54.86,15.11,15.11,0,0,1-6.38-1.53A34.75,34.75,0,0,1,106,74l-3.83,6.89,2.43,14.73c.81.32,1.63.62,2.45.88a37.22,37.22,0,0,0,11.25,1.73,30.1,30.1,0,0,0,19.38-6.5,26.36,26.36,0,0,0,9.83-16.76q1.05-6.29-1.69-10.72A13.33,13.33,0,0,0,137.24,58.34Z"/><polygon class="cls-6" points="53.83 51.51 56.79 34.75 18.25 34.75 6.89 96.54 26.81 96.54 30.7 74.51 47.96 74.51 50.75 58.68 33.49 58.68 34.75 51.51 53.83 51.51"/><path class="cls-2" d="M315.13,61.67q7-13.53,15-25.77l-.12,0A263.85,263.85,0,0,1,353.07,6l-.51-.17C295.22,21.59,206.35,53.84,91,119.4c27.5-13.47,63.51-26.8,103.71-37.61C240.3,69.54,282.82,62.77,315.13,61.67Z"/><path class="cls-7" d="M195.5,58.66a16.32,16.32,0,0,0-5-4.3A12.4,12.4,0,0,0,184.64,53a12.15,12.15,0,0,0-8.56,3.31,14.91,14.91,0,0,0-4.48,8.82q-.87,5.39,1.5,8.59c1.58,2.15,4,3.22,7.24,3.22a16,16,0,0,0,6.2-1.36,37.27,37.27,0,0,0,7.33-4.31l-4.41,23a40.24,40.24,0,0,1-7,2.18,32.28,32.28,0,0,1-6.76.73,29.35,29.35,0,0,1-7.8-1,22,22,0,0,1-6.46-2.84A24.78,24.78,0,0,1,152,81.47q-2.67-7.12-1.16-16.39A40.29,40.29,0,0,1,155.1,52.4a38.71,38.71,0,0,1,8.05-10.3A35,35,0,0,1,174,35.29,33.6,33.6,0,0,1,186.4,33a28.63,28.63,0,0,1,6.66.77,26.49,26.49,0,0,1,6.14,2.32Z"/><path class="cls-7" d="M244.29,64.87a45.19,45.19,0,0,1-3.38,12.35,38.94,38.94,0,0,1-6.5,10.21,29.21,29.21,0,0,1-8.7,6.75A21.62,21.62,0,0,1,216,96.53a18.07,18.07,0,0,1-9.15-2.35,19.75,19.75,0,0,1-6.92-6.84,26.92,26.92,0,0,1-3.76-10.06,41.4,41.4,0,0,1-.09-12.41,46.21,46.21,0,0,1,3.37-12.45,36.74,36.74,0,0,1,6.41-10.1,28.73,28.73,0,0,1,8.69-6.78,21.79,21.79,0,0,1,9.8-2.33,18.23,18.23,0,0,1,9.19,2.33,19.83,19.83,0,0,1,6.93,6.78,28,28,0,0,1,3.73,10.14A41.07,41.07,0,0,1,244.29,64.87ZM218.66,76.25a7.39,7.39,0,0,0,5.91-3.11,16.4,16.4,0,0,0,3.17-8.27c.45-3.46.13-6.25-1-8.35a5.41,5.41,0,0,0-5.09-3.15,7.39,7.39,0,0,0-5.93,3.17,16.69,16.69,0,0,0-3.19,8.33c-.46,3.44-.12,6.19,1,8.27A5.48,5.48,0,0,0,218.66,76.25Z"/><path class="cls-7" d="M241.75,96.54l8.85-61.79h22.69q9.87,0,14.31,5.36t3,15.45a23,23,0,0,1-4.18,10.85,12,12,0,0,1-7.78,5l9.8,25.15H268.21l-5.85-20.38-2.92,20.38ZM266,50.66l-1.73,12.07h2.81a5.78,5.78,0,0,0,4.18-1.54,7.34,7.34,0,0,0,2-4.41,6.11,6.11,0,0,0-.74-4.54,4.33,4.33,0,0,0-3.73-1.58Z"/><text class="cls-8" transform="translate(106.75 134.5) scale(1 1.25)">TRUSTED DISTRIBUTION SOLUTIONS</text></svg>