<svg id="Layer_1" data-name="Layer 1" xmlns="http://www.w3.org/2000/svg" viewBox="0 0 309 103.56"><defs><style>.cls-1{fill:#414042;}</style></defs><title>Stockiq</title><path class="cls-1" d="M118.33,41.17a9.69,9.69,0,0,0-6.11-1.79c-1.79,0-3.54.56-3.54,1.94,0,1.78,1.75,2,4.32,2.31,5.18.56,10.59,2.64,10.59,8.64s-5.59,8.47-11.44,8.5c-4.7,0-8.06-.78-11.68-4.58l4.07-4.66a10.48,10.48,0,0,0,7.64,2.94c2.43,0,4.1-.86,4.1-2.31,0-1.3-1.49-2.12-4.36-2.38-5.71-.53-10.62-2-10.62-8.46,0-5.52,5.4-7.91,10.92-7.91A14.79,14.79,0,0,1,122,36.5Z"/><path class="cls-1" d="M132.34,40h-7.61V33.94h22.59V40h-7.64V60h-7.34Z"/><path class="cls-1" d="M163.19,60.66c-8.53,0-14.5-5-14.5-13.68s6-13.68,14.5-13.68,14.51,5,14.51,13.68S171.76,60.66,163.19,60.66Zm0-21.06c-4.21,0-7.12,3-7.12,7.38s3,7.38,7.12,7.38c4.33,0,7.12-3,7.12-7.38S167.52,39.6,163.19,39.6Z"/><path class="cls-1" d="M204.85,56.63a14.24,14.24,0,0,1-10.47,4.07c-10.25,0-14.24-6.45-14.28-13.53,0-6.72,4.48-13.83,14.28-13.83a14,14,0,0,1,10.11,4.18L199.94,42a7.72,7.72,0,0,0-5.56-2.27c-5,0-7,4.1-7,7.49s1.83,7.24,7,7.24a9,9,0,0,0,6.15-2.65Z"/><path class="cls-1" d="M230.94,34.38,220.35,46.72c3.66,4,7.87,8.72,11.48,12.86V60h-9.12l-7.46-8.69V60h-7.39V33.94h7.39v8.57c2.23-2.76,4.66-5.82,6.85-8.57h8.84Z"/><path class="cls-1" d="M243.11,60V34.38h7.34V60Z"/><path class="cls-1" d="M105.57,75.39h-3.51v-.94h8v.94h-3.52v9h-1Z"/><path class="cls-1" d="M125,84.41h-7.14v-10h7v.94h-6V79h5.74v.93h-5.74v3.58H125Z"/><path class="cls-1" d="M141.4,83.06a5.09,5.09,0,0,1-3.62,1.5,4.81,4.81,0,0,1-5.18-5.07,4.89,4.89,0,0,1,5.18-5.18,4.56,4.56,0,0,1,3.52,1.49l-.61.62a4.11,4.11,0,0,0-2.91-1.2,4,4,0,0,0-4.19,4.25,3.9,3.9,0,0,0,4.19,4.17,4.3,4.3,0,0,0,3-1.22Z"/><path class="cls-1" d="M156.51,84.41V80h-6v4.41h-1v-10h1v4.61h6V74.45h1v10Z"/><path class="cls-1" d="M173.51,82.53l-.06-3.3V74.45h1v10h-.6l-6.44-8,0,2.94v5.07h-1v-10h.63Z"/><path class="cls-1" d="M192.83,79.46a5,5,0,1,1-5-5.18A4.88,4.88,0,0,1,192.83,79.46Zm-5,4.19a4.22,4.22,0,0,0,0-8.43,3.87,3.87,0,0,0-4,4.24A3.94,3.94,0,0,0,187.79,83.65Z"/><path class="cls-1" d="M202.11,74.45v9h5.54v.94h-6.53v-10Z"/><path class="cls-1" d="M224.45,79.46a5,5,0,1,1-5-5.18A4.87,4.87,0,0,1,224.45,79.46Zm-5,4.19a4.22,4.22,0,0,0,0-8.43,3.88,3.88,0,0,0-4.06,4.24A3.94,3.94,0,0,0,219.42,83.65Z"/><path class="cls-1" d="M240.34,76.42a4.36,4.36,0,0,0-3.06-1.2,4,4,0,0,0-4.17,4.25,3.91,3.91,0,0,0,4.17,4.11,4.3,4.3,0,0,0,2.86-1.08V80h-3.26v-.92h4.21v3.85a5.07,5.07,0,0,1-3.81,1.64,4.81,4.81,0,0,1-5.16-5.06,4.9,4.9,0,0,1,5.16-5.21,5.2,5.2,0,0,1,3.65,1.49Z"/><path class="cls-1" d="M249.54,84.41v-10h1v10Z"/><path class="cls-1" d="M266.62,84.41h-7.14v-10h7v.94h-6V79h5.75v.93h-5.75v3.58h6.15Z"/><path class="cls-1" d="M281,76.5a3.31,3.31,0,0,0-2.86-1.26c-1.22,0-2.8.35-2.8,1.82,0,1.16,1.28,1.47,2.83,1.74,2,.35,4,.79,4,2.91s-2.18,2.85-4,2.85a4.36,4.36,0,0,1-4.15-2.2l.87-.47a3.57,3.57,0,0,0,3.28,1.72c1.23,0,3-.33,3-1.92,0-1.35-1.5-1.69-3.05-2-1.87-.33-3.72-.74-3.72-2.67,0-2.1,2.1-2.76,3.78-2.76A4.16,4.16,0,0,1,281.88,76Z"/><rect class="cls-1" x="280.12" y="60.04" width="7.65" height="7.65"/><path class="cls-1" d="M254.45,34.37V60h25.67V34.37Zm18.37,18.35H261.76v-11h11.06Z"/><path class="cls-1" d="M56.43,68.25H72.77V51.9l-16.37,0Z"/><path class="cls-1" d="M72.8,84.59H89.17V68.25H72.8Z"/><path class="cls-1" d="M38.25,68.25H52.08V47.55H72.77V33.71H38.25Z"/><path class="cls-1" d="M20.45,68.25H33.94V29.43H72.77V15.93l-52.34,0Z"/></svg>