<svg xmlns="http://www.w3.org/2000/svg" viewBox="0 0 644 150.64"><defs><style>.cls-1{fill:#3f454f;}.cls-2{opacity:0.6;}.cls-3{fill:#82bb41;}</style></defs><title>summit green</title><g id="Layer_2" data-name="Layer 2"><g id="Layer_1-2" data-name="Layer 1"><path class="cls-1" d="M135.7,88.94c0-9.92,6.56-16.81,15.64-16.81a14.16,14.16,0,0,1,14.46,14c.22,8-5.1,10.15-5.94,11.83,3.2,6.77,25.27,15.06,32.35-3.52,4.72-12.37-3-18.4-17-25.46-14.79-7.4-24.38-16.65-24.38-31.1,0-21.86,17.49-35.48,44-35.48,25.89,0,39.68,14.46,39.68,27.24,0,9.75-6.22,16-14.63,16-8.57,0-14.62-5.88-14.62-13.11a13.35,13.35,0,0,1,1.17-5.38c7.49-14.73-28.28-24.81-30.4,1.84-.79,10,9,14.47,22.33,21.53,16.31,8.74,26.06,18,26.06,33.45,0,19.68-16.81,34.14-45.56,34.14-24.38,0-43.21-11.44-43.21-29.09"/><path class="cls-1" d="M239.14,38.67h25.94L254.49,83.39a26.39,26.39,0,0,0-1,6.22c0,4.37,2.18,7.23,6.89,7.23,6.73,0,10.6-5,12.95-14.79l10.59-43.38H311L298.37,91.46c-.84,3.36-6.54,25.55-6.54,25.55-11.27,0-19.35-5.37-20.86-16.81-5.05,8.41-14.13,16.81-25.39,16.81-11.43,0-19.17-7.22-19.17-19.67a52.31,52.31,0,0,1,1.85-12.77l5.89-25.73"/><path class="cls-1" d="M391,99.36a46.61,46.61,0,0,1,1.68-11.1L397,72.63a28.45,28.45,0,0,0,1-6.56c0-5.38-3-7.9-7.06-7.9-4.88,0-8.75,4.21-11.27,14l-10.42,44.06H342.2l10.42-43.55a27.12,27.12,0,0,0,1.18-6.73c0-5-2.86-7.73-7.06-7.73-5.05,0-9.59,4.21-11.94,13.79L324,116.18H297l13.45-56.66,4.66-20.18h24.76l-3.86,17C342,45.39,351.78,38,361.53,38s17.82,6.23,19.67,17.66C387.93,43.88,397.34,38,406.42,38c10.59,0,19.67,7.4,19.67,21.86,0,3.87-1,8.91-2.18,13.62L419,93c-.67,2.86-6.21,24.72-6.21,24.72-14.12,0-21.86-7.06-21.86-18.33"/><path class="cls-1" d="M557.41,16.31C557.41,7.06,564.64,0,574.22,0S591,7.06,591,16.31s-7.23,16.31-16.81,16.31-16.81-7.06-16.81-16.31M545,102.05A44.81,44.81,0,0,1,546.48,91l6.72-28.75L558,42h27.62L573,94.82c-.84,3.36-6.37,25.56-6.37,25.56-14.13,0-21.71-6.89-21.71-18.33"/><path class="cls-1" d="M605.33,121.47c-12.44,0-21.52-5.72-21.52-18.84,0-3.19.67-6.55,1.85-12.26l6.56-27.24H579.61l4.63-21,12.68-.33,3.36-12.93L629,19.08,623.32,43H644l-4.71,20.18h-21Z"/><path class="cls-1" d="M511.76,100a46.47,46.47,0,0,1,1.68-11.09l4.37-15.64a28.46,28.46,0,0,0,1-6.55c0-5.38-3-7.91-7.06-7.91-4.88,0-8.75,4.21-11.27,14l-10.42,44.05H463L473.43,73.3a27,27,0,0,0,1.17-6.72c0-5-2.86-7.74-7.06-7.74-5,0-9.58,4.21-11.94,13.79l-10.76,44.22H417.77l13.45-56.66L435.88,40h24.77l-3.87,17c6.05-10.92,15.8-18.32,25.56-18.32S500.16,44.89,502,56.32c6.72-11.77,16.13-17.65,25.21-17.65,10.6,0,19.67,7.4,19.67,21.86a61.35,61.35,0,0,1-2.18,13.61l-4.88,19.5c-.67,2.86-7.39,24.72-7.39,24.72-14.12,0-20.68-7.06-20.68-18.33"/><g class="cls-2"><path class="cls-3" d="M125.81,75.4h0c-9.62-6.22-24.11-8.3-39.18-8.3-30.13,0-62.5,8.3-62.5,8.3l97.19-52.5c-22,27.41,4.49,52.5,4.49,52.5"/></g><path class="cls-3" d="M97.2,21.61,0,72.07s72.84-16.64,101.69,2c0,0-26.72-25-4.49-52.5"/><path class="cls-3" d="M254.07,23.26h-2l-1.62,9.21h-8.29l5-28.75h9.54c4,0,8.65,2.12,8.65,8.17C265.32,19.32,260.57,23.26,254.07,23.26Zm1.3-12.39h-1.22l-.93,5.56h1.18a3,3,0,0,0,3-3.29A2,2,0,0,0,255.37,10.87Z"/><path class="cls-3" d="M285,15.38a26.56,26.56,0,0,1-.44,4.14l-2.28,13h-8l2.32-12.91a8.11,8.11,0,0,0,.08-.89c0-.77-.25-1.47-1.14-1.47s-1.54.94-1.79,2.32l-2.27,13h-8.08l5.4-30.69h8l-2,11.32h.12A6,6,0,0,1,280,9.94C283.67,9.94,285,13,285,15.38Z"/><path class="cls-3" d="M294.07,33.28c-5.48,0-8.45-3.77-8.45-9,0-7.59,4.14-14.37,11.41-14.37,5.4,0,8.37,3.73,8.37,9C305.4,26.46,301.54,33.28,294.07,33.28ZM296.22,17c-2,0-2.88,4.18-2.88,6.58,0,1.54.4,2.6,1.46,2.6,2,0,3-4.1,3-6.54C297.8,18.1,297.36,17,296.22,17Z"/><path class="cls-3" d="M323.67,27.88a9.81,9.81,0,0,1-8.73,5.4c-5.56,0-8.61-3.65-8.61-9.29,0-8.21,5-14,10.92-14,5.69,0,7.88,3.69,7.88,8.24a24.83,24.83,0,0,1-.69,5.32H314a2.53,2.53,0,0,0,0,.49c0,1.25.65,2.15,1.87,2.15a3.14,3.14,0,0,0,2.44-1.79Zm-5.44-9a6.69,6.69,0,0,0,.08-.89c0-1.22-.41-2-1.3-2s-1.95,1.21-2.23,2.88Z"/><path class="cls-3" d="M328.26,10.75h7.47c0,.73-.16,1.83-.29,2.64h.13a6.24,6.24,0,0,1,5.52-3.45c3.65,0,5.07,3,5.07,5.44a26.56,26.56,0,0,1-.44,4.14l-2.28,13h-8l2.32-12.91a8.11,8.11,0,0,0,.08-.89c0-.77-.24-1.47-1.14-1.47s-1.54.94-1.78,2.32l-2.28,13h-8.08l2.93-16.56C327.77,14.12,328.14,11.76,328.26,10.75Z"/><path class="cls-3" d="M354.28,32.47H346.2l3.74-21.72h8.12Zm.33-23.18a3.75,3.75,0,0,1-3.9-3.9A4.92,4.92,0,0,1,355.34.31a3.72,3.72,0,0,1,3.94,4A4.75,4.75,0,0,1,354.61,9.29Z"/><path class="cls-3" d="M373,21.67l2.85,10.8h-7.92l-1.14-6.54-3.29,6.54h-8.53L362.24,21l-2.92-10.27h7.8l1.05,5.93,2.88-5.93h8.61Z"/><path class="cls-3" d="M400.57,20.66l-5.48,4.46h8.73l-1.26,7.35h-19L384.82,25l10.64-9.38c1.38-1.22,2.43-2.31,2.43-3.65a1.38,1.38,0,0,0-1.46-1.55c-1.26,0-2.11,1.14-2.39,3l-7.92-1c1.42-6.21,5.72-9.21,11.33-9.21,4.75,0,8.77,2.27,8.77,7.83C406.22,15.5,403.78,18,400.57,20.66Z"/><path class="cls-3" d="M414.66,33c-6.49,0-8.77-5.16-8.77-10.23,0-7.19,2.52-19.49,12.63-19.49,6.46,0,8.93,5.11,8.93,10.19C427.45,20.94,424.73,33,414.66,33Zm3.21-22.33c-2.39,0-3.65,9.13-3.65,12,0,1.58.28,2.92,1.26,2.92,2.31,0,3.61-9.1,3.61-11.9C419.09,12.09,418.89,10.63,417.87,10.63Z"/><path class="cls-3" d="M441.14,32.47h-8.41l3.45-19.28-4.34,2.51-2.72-6.37,9.95-5.61h7.06Z"/><path class="cls-3" d="M465.26,17.37v.08a6.48,6.48,0,0,1,3.25,5.72c0,5.73-4,9.91-10.85,9.91-5.68,0-9.94-2.92-9.94-7.88a7.88,7.88,0,0,1,5.6-7.75v-.08a5.49,5.49,0,0,1-3-5C450.36,7.54,454,3,461.2,3c5.88,0,9.05,2.85,9.05,7.23A7.32,7.32,0,0,1,465.26,17.37Zm-6.78,3.25c-1.34,0-2.4,1.9-2.44,3.81,0,1.34.61,2.24,1.66,2.24,1.43,0,2.4-2,2.4-3.78C460.14,21.51,459.45,20.62,458.48,20.62Zm2-11.58c-1.51,0-2.4,1.79-2.4,3.5a1.86,1.86,0,0,0,1.67,2.07c1.54,0,2.35-2.11,2.35-3.74C462.13,9.77,461.6,9,460.51,9Z"/><path class="cls-3" d="M281.13,150h-6.84V125.65h6.84c7,0,10.1,4.75,10.1,12.24S288.07,150,281.13,150Zm.06-19.51h-1.34v14.7h1.34c2.65,0,4.51-2.57,4.51-7.28C285.7,133,283.84,130.47,281.19,130.47Z"/><path class="cls-3" d="M303.32,141.22V150h-5.39v-8.76l-6.15-15.57h5.94l2.92,10.07h.07l3-10.07h5.84Z"/><path class="cls-3" d="M321.77,150l-5.63-14.81H316l.14,14.81h-4.91V125.65h6l5.61,15h.1l-.1-15h4.74V150Z"/><path class="cls-3" d="M342.77,150l-1-4.43H336.3l-1,4.43h-5.5l5.91-24.33h6.91L348.5,150Zm-3.65-19H339l-2.07,10.34h4.16Z"/><path class="cls-3" d="M367.4,150l.21-16.7h-.14L363.38,150H359.5l-3.95-16.7h-.11l.17,16.7h-5V125.65h6.94l3.92,15.67h.14l3.81-15.67h7.36V150Z"/><path class="cls-3" d="M377.12,150V125.65h5.53V150Z"/><path class="cls-3" d="M395.44,150.64c-5.67,0-9.45-5.3-9.45-12.82S389.8,125,395.44,125a7.94,7.94,0,0,1,6.7,3.06l-3,4a3.88,3.88,0,0,0-3.33-1.79c-2.89,0-4.4,3.3-4.4,7.56s1.51,7.56,4.43,7.56a3.85,3.85,0,0,0,3.23-1.86l3.06,3.82A7.76,7.76,0,0,1,395.44,150.64Z"/><path class="cls-3" d="M419.9,150.64c-5.67,0-9.45-5.3-9.45-12.82S414.26,125,419.9,125a7.94,7.94,0,0,1,6.7,3.06l-3,4a3.87,3.87,0,0,0-3.33-1.79c-2.89,0-4.4,3.3-4.4,7.56s1.51,7.56,4.44,7.56a3.88,3.88,0,0,0,3.23-1.86l3.05,3.82A7.74,7.74,0,0,1,419.9,150.64Z"/><path class="cls-3" d="M437,150.64c-5.77,0-9.34-5.16-9.34-12.89S431.13,125,437,125s9.35,5.05,9.35,12.75S442.75,150.64,437,150.64Zm0-20.31c-2.5,0-3.71,3.19-3.71,7.42s1.21,7.49,3.71,7.49,3.72-3.26,3.72-7.49S439.45,130.33,437,130.33Z"/><path class="cls-3" d="M466.42,150l.21-16.7h-.14L462.4,150h-3.88l-3.95-16.7h-.11l.18,16.7h-5V125.65h6.94l3.92,15.67h.14l3.81-15.67h7.36V150Z"/><path class="cls-3" d="M492.91,150l.21-16.7H493L488.89,150H485l-3.95-16.7H481l.18,16.7h-5V125.65h6.94L487,141.32h.14L491,125.65h7.36V150Z"/><path class="cls-3" d="M510.36,150.64c-5.94,0-8.14-4.26-8.14-9.66V125.65h5.53V140.5c0,2.75.55,4.84,2.72,4.84s2.71-2.09,2.71-4.84V125.65h5.5V141C518.68,146.34,516.31,150.64,510.36,150.64Z"/><path class="cls-3" d="M533.11,150l-5.63-14.81h-.11l.14,14.81H522.6V125.65h6l5.61,15h.1l-.1-15H539V150Z"/><path class="cls-3" d="M543.31,150V125.65h5.54V150Z"/><path class="cls-3" d="M560.84,130.33V150h-5.4V130.33H551v-4.68H565.3v4.68Z"/><path class="cls-3" d="M567.43,150V125.65H573V150Z"/><path class="cls-3" d="M577.29,150V125.65h11.76v4.85h-6.5v4.78h6v4.53h-6v5.26h6.91V150Z"/><path class="cls-3" d="M602.75,131.5a4.19,4.19,0,0,0-3.16-1.52,2.28,2.28,0,0,0-2.4,2.51c0,1.52,1,2.17,3,3.16,2.23,1.1,5.15,2.86,5.15,7.08,0,5.26-3.57,7.91-7.56,7.91a9.91,9.91,0,0,1-6.91-2.75l2.82-4.13a5.6,5.6,0,0,0,3.92,1.83,2.3,2.3,0,0,0,2.37-2.48c0-1.58-1.13-2.37-3.23-3.4-2.64-1.31-4.84-3-4.84-7a7.24,7.24,0,0,1,7.49-7.7,8.34,8.34,0,0,1,6.22,2.44Z"/></g></g></svg>