<svg xmlns="http://www.w3.org/2000/svg" viewBox="0 0 228 53.33"><defs><style>.cls-1{fill:#3f454f;}.cls-2{opacity:0.6;}.cls-3{fill:#e6e6e6;}.cls-4{fill:#fff;}</style></defs><title>Summit</title><g id="Layer_2" data-name="Layer 2"><g id="Retro"><path class="cls-1" d="M48,31.49c0-3.51,2.32-5.95,5.54-5.95a5,5,0,0,1,5.12,4.94c.08,2.81-1.81,3.59-2.1,4.18,1.13,2.4,8.94,5.34,11.45-1.24,1.67-4.38-1.08-6.52-6-9-5.24-2.62-8.63-5.89-8.63-11C53.4,5.65,59.59.83,69,.83,78.16.83,83,6,83,10.48c0,3.45-2.2,5.65-5.18,5.65s-5.17-2.08-5.17-4.64a4.71,4.71,0,0,1,.41-1.91c2.65-5.21-10-8.78-10.76.66-.28,3.54,3.2,5.12,7.91,7.62C76,21,79.47,24.23,79.47,29.7c0,7-6,12.09-16.13,12.09-8.63,0-15.3-4-15.3-10.3"/><path class="cls-1" d="M84.66,13.69h9.19L90.1,29.52a9.44,9.44,0,0,0-.36,2.21,2.26,2.26,0,0,0,2.44,2.56c2.38,0,3.75-1.79,4.58-5.24l3.75-15.36h9.59l-4.47,18.69c-.29,1.19-2.31,9-2.31,9-4,0-6.85-1.91-7.39-6-1.78,3-5,6-9,6s-6.78-2.56-6.78-7a18.85,18.85,0,0,1,.65-4.52l2.09-9.11"/><path class="cls-1" d="M138.41,35.18a16.45,16.45,0,0,1,.6-3.93l1.55-5.54a10.35,10.35,0,0,0,.35-2.32c0-1.9-1.07-2.8-2.5-2.8-1.72,0-3.09,1.49-4,4.94l-3.69,15.6h-9.58l3.69-15.42a9.41,9.41,0,0,0,.42-2.38,2.42,2.42,0,0,0-2.5-2.74c-1.79,0-3.39,1.49-4.23,4.89l-3.81,15.65h-9.58l4.76-20.06,1.65-7.14h8.77l-1.37,6c2.14-3.87,5.59-6.49,9-6.49s6.31,2.2,7,6.25c2.38-4.16,5.71-6.25,8.93-6.25,3.75,0,7,2.62,7,7.74a21.62,21.62,0,0,1-.77,4.82l-1.73,6.91c-.24,1-2.19,8.75-2.19,8.75-5,0-7.75-2.5-7.75-6.49"/><path class="cls-1" d="M197.34,5.77a6,6,0,0,1,11.91,0,6,6,0,0,1-11.91,0m-4.4,30.36a16.24,16.24,0,0,1,.53-3.93L195.85,22l1.71-7.14h9.78l-4.46,18.69c-.3,1.19-2.26,9-2.26,9-5,0-7.68-2.44-7.68-6.49"/><path class="cls-1" d="M214.31,43c-4.4,0-7.62-2-7.62-6.66a22.47,22.47,0,0,1,.66-4.35l2.32-9.64H205.2l1.64-7.45,4.49-.11,1.19-4.58L222.7,6.75l-2,8.46H228l-1.67,7.14h-7.44Z"/><path class="cls-1" d="M181.18,35.42a16.31,16.31,0,0,1,.6-3.93L183.32,26a9.9,9.9,0,0,0,.36-2.32c0-1.9-1.07-2.8-2.5-2.8-1.73,0-3.09,1.49-4,4.94l-3.69,15.6h-9.58L167.61,26a9.41,9.41,0,0,0,.42-2.38,2.42,2.42,0,0,0-2.5-2.74c-1.79,0-3.4,1.49-4.23,4.88l-3.81,15.66h-9.58l4.76-20.06,1.65-7.14h8.77l-1.37,6c2.14-3.87,5.59-6.49,9-6.49s6.31,2.2,7,6.25c2.38-4.17,5.71-6.25,8.93-6.25,3.75,0,7,2.62,7,7.74a22.21,22.21,0,0,1-.77,4.82l-1.73,6.9c-.24,1-2.62,8.75-2.62,8.75-5,0-7.32-2.5-7.32-6.48"/><g class="cls-2"><path class="cls-3" d="M44.54,26.7h0c-3.4-2.21-8.54-2.94-13.87-2.94A103.64,103.64,0,0,0,8.54,26.7L43,8.11c-7.79,9.7,1.59,18.59,1.59,18.59"/></g><path class="cls-4" d="M34.41,7.65,0,25.51s25.79-5.89,36,.73c0,0-9.46-8.84-1.59-18.59"/><path class="cls-4" d="M90,8.23h-.72l-.57,3.27H85.72L87.49,1.32h3.38a2.8,2.8,0,0,1,3.06,2.89A3.71,3.71,0,0,1,90,8.23Zm.46-4.38H90l-.33,2h.42a1.08,1.08,0,0,0,1.05-1.17A.72.72,0,0,0,90.41,3.85Z"/><path class="cls-4" d="M100.89,5.44a8.9,8.9,0,0,1-.16,1.47l-.8,4.59H97.08l.82-4.57c0-.12,0-.23,0-.32,0-.27-.09-.52-.4-.52s-.55.33-.64.82l-.8,4.59H93.23L95.14.63H98l-.71,4h0a2.12,2.12,0,0,1,1.84-1.12A1.76,1.76,0,0,1,100.89,5.44Z"/><path class="cls-4" d="M104.11,11.78a2.87,2.87,0,0,1-3-3.17c0-2.69,1.47-5.09,4-5.09a2.86,2.86,0,0,1,3,3.18C108.12,9.37,106.76,11.78,104.11,11.78ZM104.87,6c-.69,0-1,1.48-1,2.33,0,.54.15.92.52.92.7,0,1.06-1.45,1.06-2.32C105.43,6.41,105.28,6,104.87,6Z"/><path class="cls-4" d="M114.59,9.87a3.46,3.46,0,0,1-3.09,1.91c-2,0-3-1.29-3-3.29,0-2.9,1.79-5,3.87-5a2.6,2.6,0,0,1,2.79,2.92,8.45,8.45,0,0,1-.25,1.88h-3.7a.66.66,0,0,0,0,.17c0,.45.23.76.66.76a1.09,1.09,0,0,0,.86-.63Zm-1.93-3.19a1.66,1.66,0,0,0,0-.32c0-.43-.14-.7-.46-.7s-.69.43-.79,1Z"/><path class="cls-4" d="M116.22,3.81h2.64c0,.25-.06.64-.1.93h0a2.22,2.22,0,0,1,2-1.22,1.79,1.79,0,0,1,1.79,1.92,10,10,0,0,1-.15,1.47l-.81,4.59h-2.84l.81-4.57a2,2,0,0,0,0-.32c0-.27-.08-.52-.4-.52s-.55.33-.63.82l-.81,4.59h-2.86l1-5.87C116,5,116.17,4.17,116.22,3.81Z"/><path class="cls-4" d="M125.43,11.5h-2.86l1.32-7.69h2.88Zm.12-8.21a1.33,1.33,0,0,1-1.39-1.38A1.74,1.74,0,0,1,125.8.11a1.32,1.32,0,0,1,1.4,1.41A1.68,1.68,0,0,1,125.55,3.29Z"/><path class="cls-4" d="M132,7.67l1,3.83h-2.8l-.41-2.32-1.16,2.32h-3l2.59-4.06-1-3.63H130l.38,2.09,1-2.09h3Z"/><path class="cls-4" d="M141.82,7.31l-1.94,1.58H143l-.45,2.61h-6.73l.45-2.65L140,5.53c.49-.43.86-.82.86-1.29a.49.49,0,0,0-.52-.55c-.44,0-.75.4-.85,1.06l-2.8-.34a3.86,3.86,0,0,1,4-3.26c1.68,0,3.11.8,3.11,2.77C143.82,5.49,143,6.38,141.82,7.31Z"/><path class="cls-4" d="M146.81,11.67c-2.3,0-3.11-1.83-3.11-3.62,0-2.55.89-6.9,4.47-6.9,2.29,0,3.16,1.81,3.16,3.6C151.33,7.41,150.37,11.67,146.81,11.67Zm1.13-7.91c-.85,0-1.29,3.24-1.29,4.26,0,.56.1,1,.44,1,.82,0,1.28-3.22,1.28-4.21C148.37,4.28,148.3,3.76,147.94,3.76Z"/><path class="cls-4" d="M156.18,11.5h-3l1.23-6.83-1.54.89-1-2.26,3.53-2H158Z"/><path class="cls-4" d="M164.72,6.15v0a2.3,2.3,0,0,1,1.15,2c0,2-1.41,3.51-3.84,3.51-2,0-3.52-1-3.52-2.79a2.79,2.79,0,0,1,2-2.74v0a2,2,0,0,1-1.05-1.78c0-1.7,1.3-3.3,3.84-3.3,2.09,0,3.21,1,3.21,2.56A2.59,2.59,0,0,1,164.72,6.15Zm-2.4,1.15c-.48,0-.85.67-.86,1.35,0,.47.21.79.58.79s.85-.72.85-1.34S162.66,7.3,162.32,7.3ZM163,3.2c-.54,0-.85.63-.85,1.24a.65.65,0,0,0,.59.73c.54,0,.83-.75.83-1.32C163.61,3.46,163.42,3.2,163,3.2Z"/><path class="cls-4" d="M99.53,53.1H97.11V44.49h2.42c2.47,0,3.58,1.68,3.58,4.33S102,53.1,99.53,53.1Zm0-6.91h-.47V51.4h.47c.94,0,1.6-.92,1.6-2.58S100.49,46.19,99.55,46.19Z"/><path class="cls-4" d="M107.39,50v3.1h-1.91V50l-2.18-5.51h2.1l1,3.56h0l1.05-3.56h2.07Z"/><path class="cls-4" d="M113.92,53.1l-2-5.24h0l0,5.24H110.2V44.49h2.14l2,5.31h0l0-5.31H116V53.1Z"/><path class="cls-4" d="M121.35,53.1,121,51.53h-1.94l-.35,1.57h-1.94l2.09-8.61h2.44l2.08,8.61Zm-1.29-6.74h0L119.28,50h1.48Z"/><path class="cls-4" d="M130.07,53.1l.08-5.91h-.05l-1.45,5.91h-1.37l-1.4-5.91h0l.06,5.91h-1.76V44.49h2.45L128,50h0l1.35-5.54H132V53.1Z"/><path class="cls-4" d="M133.52,53.1V44.49h1.95V53.1Z"/><path class="cls-4" d="M140,53.33c-2,0-3.35-1.87-3.35-4.54S138,44.26,140,44.26a2.81,2.81,0,0,1,2.37,1.08l-1,1.41a1.39,1.39,0,0,0-1.18-.63c-1,0-1.56,1.16-1.56,2.67s.53,2.68,1.57,2.68a1.35,1.35,0,0,0,1.14-.66l1.08,1.35A2.72,2.72,0,0,1,140,53.33Z"/><path class="cls-4" d="M148.66,53.33c-2,0-3.35-1.87-3.35-4.54s1.35-4.53,3.35-4.53A2.81,2.81,0,0,1,151,45.34l-1,1.41a1.39,1.39,0,0,0-1.18-.63c-1,0-1.56,1.16-1.56,2.67s.53,2.68,1.57,2.68a1.35,1.35,0,0,0,1.14-.66L151,52.16A2.72,2.72,0,0,1,148.66,53.33Z"/><path class="cls-4" d="M154.71,53.33c-2.05,0-3.31-1.82-3.31-4.56s1.24-4.51,3.31-4.51S158,46,158,48.77,156.75,53.33,154.71,53.33Zm0-7.19c-.89,0-1.32,1.13-1.32,2.63s.43,2.65,1.32,2.65S156,50.27,156,48.77,155.58,46.14,154.71,46.14Z"/><path class="cls-4" d="M165.13,53.1l.07-5.91h0l-1.45,5.91h-1.38l-1.4-5.91h0L161,53.1h-1.77V44.49h2.46L163,50h.05l1.35-5.54H167V53.1Z"/><path class="cls-4" d="M174.51,53.1l.07-5.91h-.05l-1.44,5.91h-1.38l-1.4-5.91h0l.06,5.91h-1.77V44.49H171L172.42,50h.05l1.35-5.54h2.6V53.1Z"/><path class="cls-4" d="M180.69,53.33c-2.11,0-2.89-1.51-2.89-3.42V44.49h2v5.25c0,1,.2,1.72,1,1.72s1-.74,1-1.72V44.49h1.94v5.42C183.63,51.81,182.79,53.33,180.69,53.33Z"/><path class="cls-4" d="M188.74,53.1l-2-5.24h0l0,5.24H185V44.49h2.14l2,5.31h0l0-5.31h1.68V53.1Z"/><path class="cls-4" d="M192.35,53.1V44.49h2V53.1Z"/><path class="cls-4" d="M198.56,46.14v7h-1.91v-7h-1.58V44.49h5.07v1.65Z"/><path class="cls-4" d="M200.89,53.1V44.49h2V53.1Z"/><path class="cls-4" d="M204.38,53.1V44.49h4.16V46.2h-2.3v1.69h2.12V49.5h-2.12v1.86h2.45V53.1Z"/><path class="cls-4" d="M213.4,46.55a1.49,1.49,0,0,0-1.12-.53.8.8,0,0,0-.85.89c0,.53.36.76,1.06,1.12a2.7,2.7,0,0,1,1.82,2.5,2.6,2.6,0,0,1-2.68,2.8,3.51,3.51,0,0,1-2.44-1l1-1.46a2,2,0,0,0,1.38.64.81.81,0,0,0,.84-.87c0-.56-.4-.84-1.14-1.21A2.52,2.52,0,0,1,209.55,47a2.56,2.56,0,0,1,2.66-2.72,2.93,2.93,0,0,1,2.2.86Z"/></g></g></svg>